<svg id="visual" viewBox="0 0 1920 800" width="1920" height="800" xmlns="http://www.w3.org/2000/svg" xmlns:xlink="http://www.w3.org/1999/xlink" version="1.1"><path d="M0 635L24.7 627.7C49.3 620.3 98.7 605.7 147.8 596C197 586.3 246 581.7 295.2 580.8C344.3 580 393.7 583 443 594.3C492.3 605.7 541.7 625.3 590.8 629.7C640 634 689 623 738.2 625.2C787.3 627.3 836.7 642.7 886 643.2C935.3 643.7 984.7 629.3 1034 623.8C1083.3 618.3 1132.7 621.7 1181.8 613C1231 604.3 1280 583.7 1329.2 580.5C1378.3 577.3 1427.7 591.7 1477 607.2C1526.3 622.7 1575.7 639.3 1624.8 642.5C1674 645.7 1723 635.3 1772.2 636C1821.3 636.7 1870.7 648.3 1895.3 654.2L1920 660L1920 801L1895.3 801C1870.7 801 1821.3 801 1772.2 801C1723 801 1674 801 1624.8 801C1575.7 801 1526.3 801 1477 801C1427.7 801 1378.3 801 1329.2 801C1280 801 1231 801 1181.8 801C1132.7 801 1083.3 801 1034 801C984.7 801 935.3 801 886 801C836.7 801 787.3 801 738.2 801C689 801 640 801 590.8 801C541.7 801 492.3 801 443 801C393.7 801 344.3 801 295.2 801C246 801 197 801 147.8 801C98.7 801 49.3 801 24.7 801L0 801Z" fill="#d9b8fc"></path><path d="M0 742L24.7 725C49.3 708 98.7 674 147.8 658C197 642 246 644 295.2 655C344.3 666 393.7 686 443 696.8C492.3 707.7 541.7 709.3 590.8 700.7C640 692 689 673 738.2 670.3C787.3 667.7 836.7 681.3 886 688.2C935.3 695 984.7 695 1034 701.7C1083.3 708.3 1132.7 721.7 1181.8 715.7C1231 709.7 1280 684.3 1329.2 682.2C1378.3 680 1427.7 701 1477 709.7C1526.3 718.3 1575.7 714.7 1624.8 714.5C1674 714.3 1723 717.7 1772.2 709.8C1821.3 702 1870.7 683 1895.3 673.5L1920 664L1920 801L1895.3 801C1870.7 801 1821.3 801 1772.2 801C1723 801 1674 801 1624.8 801C1575.7 801 1526.3 801 1477 801C1427.7 801 1378.3 801 1329.2 801C1280 801 1231 801 1181.8 801C1132.7 801 1083.3 801 1034 801C984.7 801 935.3 801 886 801C836.7 801 787.3 801 738.2 801C689 801 640 801 590.8 801C541.7 801 492.3 801 443 801C393.7 801 344.3 801 295.2 801C246 801 197 801 147.8 801C98.7 801 49.3 801 24.7 801L0 801Z" fill="#2a2342"></path></svg>